<?xml version="1.0" encoding="UTF-8" standalone="no"?>
<!DOCTYPE svg PUBLIC "-//W3C//DTD SVG 1.1//EN" "http://www.w3.org/Graphics/SVG/1.1/DTD/svg11.dtd">
<!-- Created with Vectornator (http://vectornator.io/) -->
<svg height="100%" stroke-miterlimit="10" style="fill-rule:nonzero;clip-rule:evenodd;stroke-linecap:round;stroke-linejoin:round;" version="1.1" viewBox="0 0 3370.82 2384.24" width="100%" xml:space="preserve" xmlns="http://www.w3.org/2000/svg" xmlns:vectornator="http://vectornator.io" xmlns:xlink="http://www.w3.org/1999/xlink">
<defs/>
<g id="Layer-1" vectornator:layerName="Layer 1">
<g opacity="1" vectornator:layerName="Group 1">
<g opacity="1" vectornator:layerName="Group 1">
<path d="M730.994 1001.91C730.994 610.483 1048.31 293.165 1439.74 293.165C1831.18 293.165 2148.49 610.483 2148.49 1001.91C2148.49 1393.35 1831.18 1710.66 1439.74 1710.66C1048.31 1710.66 730.994 1393.35 730.994 1001.91Z" fill="#49547b" fill-rule="nonzero" opacity="1" stroke="none" vectornator:layerName="Oval 1"/>
<g fill="#edf0fa" opacity="1" stroke="none" vectornator:layerName="Text 1">
<path d="M1578.72 876.43L1586.04 1031.7L1567.49 1031.7C1563.91 1004.36 1559.03 984.829 1552.84 973.11C1542.75 954.23 1529.32 940.314 1512.56 931.362C1495.79 922.41 1473.74 917.934 1446.4 917.934L1353.13 917.934L1353.13 1423.79C1353.13 1464.48 1357.53 1489.87 1366.32 1499.97C1378.69 1513.64 1397.73 1520.47 1423.45 1520.47L1446.4 1520.47L1446.4 1538.54L1165.63 1538.54L1165.63 1520.47L1189.07 1520.47C1217.07 1520.47 1236.92 1512.01 1248.64 1495.08C1255.8 1484.67 1259.38 1460.9 1259.38 1423.79L1259.38 917.934L1179.79 917.934C1148.87 917.934 1126.9 920.213 1113.88 924.77C1096.95 930.955 1082.46 942.837 1070.42 960.415C1058.38 977.993 1051.21 1001.76 1048.94 1031.7L1030.38 1031.7L1038.19 876.43L1578.72 876.43Z"/>
<path d="M1952.26 1368.62C1940.21 1427.54 1916.61 1472.87 1881.46 1504.6C1846.3 1536.34 1807.4 1552.21 1764.76 1552.21C1713.97 1552.21 1669.7 1530.89 1631.94 1488.25C1594.18 1445.6 1575.3 1387.99 1575.3 1315.4C1575.3 1245.08 1596.22 1187.95 1638.05 1144.01C1679.88 1100.06 1730.09 1078.09 1788.68 1078.09C1832.63 1078.09 1868.76 1089.73 1897.08 1113C1925.4 1136.28 1939.56 1160.45 1939.56 1185.51C1939.56 1197.88 1935.57 1207.89 1927.6 1215.54C1919.62 1223.19 1908.47 1227.02 1894.15 1227.02C1874.94 1227.02 1860.46 1220.83 1850.69 1208.46C1845.16 1201.63 1841.5 1188.6 1839.71 1169.4C1837.92 1150.19 1831.32 1135.54 1819.93 1125.45C1808.54 1115.69 1792.75 1110.81 1772.57 1110.81C1740.02 1110.81 1713.81 1122.85 1693.96 1146.94C1667.59 1178.84 1654.4 1220.99 1654.4 1273.4C1654.4 1326.79 1667.51 1373.91 1693.71 1414.76C1719.92 1455.61 1755.32 1476.04 1799.91 1476.04C1831.81 1476.04 1860.46 1465.13 1885.85 1443.32C1903.75 1428.35 1921.17 1401.17 1938.1 1361.78L1952.26 1368.62Z"/>
</g>
</g>
</g>
</g>
</svg>
